<mxfile host="app.diagrams.net" modified="2024-01-22T08:54:26.400Z" agent="Mozilla/5.0 (Windows NT 10.0; Win64; x64) AppleWebKit/537.36 (KHTML, like Gecko) Chrome/120.0.0.0 Safari/537.36 Edg/120.0.0.0" etag="3ZR5XXOX6_NBGus0aImD" version="22.1.21" type="device">
  <diagram name="Page-1" id="EKRN2DYRQ_DGiYnYbv2F">
    <mxGraphModel dx="1042" dy="617" grid="1" gridSize="10" guides="1" tooltips="1" connect="1" arrows="1" fold="1" page="1" pageScale="1" pageWidth="1169" pageHeight="827" math="0" shadow="0">
      <root>
        <mxCell id="0" />
        <mxCell id="1" parent="0" />
        <mxCell id="bE6PycR4O1oquGe3UkHo-58" value="" style="edgeStyle=orthogonalEdgeStyle;rounded=0;orthogonalLoop=1;jettySize=auto;html=1;" parent="1" source="bE6PycR4O1oquGe3UkHo-1" target="bE6PycR4O1oquGe3UkHo-2" edge="1">
          <mxGeometry relative="1" as="geometry" />
        </mxCell>
        <mxCell id="bE6PycR4O1oquGe3UkHo-1" value="&lt;b&gt;&lt;font style=&quot;font-size: 16px;&quot;&gt;Client&lt;/font&gt;&lt;/b&gt;" style="rounded=0;whiteSpace=wrap;html=1;" parent="1" vertex="1">
          <mxGeometry x="531" y="90" width="120" height="60" as="geometry" />
        </mxCell>
        <mxCell id="bE6PycR4O1oquGe3UkHo-60" style="edgeStyle=orthogonalEdgeStyle;rounded=0;orthogonalLoop=1;jettySize=auto;html=1;entryX=0.5;entryY=0;entryDx=0;entryDy=0;exitX=0.5;exitY=1;exitDx=0;exitDy=0;" parent="1" source="bE6PycR4O1oquGe3UkHo-2" target="bE6PycR4O1oquGe3UkHo-47" edge="1">
          <mxGeometry relative="1" as="geometry" />
        </mxCell>
        <mxCell id="bE6PycR4O1oquGe3UkHo-63" style="edgeStyle=orthogonalEdgeStyle;rounded=0;orthogonalLoop=1;jettySize=auto;html=1;entryX=0.5;entryY=0;entryDx=0;entryDy=0;exitX=0.5;exitY=1;exitDx=0;exitDy=0;" parent="1" source="bE6PycR4O1oquGe3UkHo-2" target="bE6PycR4O1oquGe3UkHo-49" edge="1">
          <mxGeometry relative="1" as="geometry" />
        </mxCell>
        <mxCell id="bE6PycR4O1oquGe3UkHo-64" value="" style="edgeStyle=orthogonalEdgeStyle;rounded=0;orthogonalLoop=1;jettySize=auto;html=1;entryX=0.5;entryY=0;entryDx=0;entryDy=0;" parent="1" source="bE6PycR4O1oquGe3UkHo-2" edge="1" target="bE6PycR4O1oquGe3UkHo-48">
          <mxGeometry relative="1" as="geometry">
            <mxPoint x="585" y="360" as="targetPoint" />
          </mxGeometry>
        </mxCell>
        <mxCell id="bE6PycR4O1oquGe3UkHo-2" value="&lt;b&gt;&lt;font style=&quot;font-size: 16px;&quot;&gt;Ingress&lt;/font&gt;&lt;/b&gt;" style="rounded=0;whiteSpace=wrap;html=1;" parent="1" vertex="1">
          <mxGeometry x="531" y="210" width="120" height="60" as="geometry" />
        </mxCell>
        <mxCell id="bE6PycR4O1oquGe3UkHo-19" value="" style="group;movable=1;resizable=1;rotatable=1;deletable=1;editable=1;locked=0;connectable=1;" parent="1" vertex="1" connectable="0">
          <mxGeometry x="81" y="510" width="300" height="170" as="geometry" />
        </mxCell>
        <mxCell id="bE6PycR4O1oquGe3UkHo-18" value="&lt;h1 style=&quot;font-size: 16px;&quot;&gt;&lt;font style=&quot;font-size: 16px;&quot;&gt;&amp;nbsp; &amp;nbsp; Deployment A&lt;/font&gt;&lt;/h1&gt;&lt;p style=&quot;font-size: 16px;&quot;&gt;&lt;br&gt;&lt;/p&gt;" style="text;html=1;strokeColor=default;fillColor=none;spacing=5;spacingTop=-20;whiteSpace=wrap;overflow=hidden;rounded=0;movable=1;resizable=1;rotatable=1;deletable=1;editable=1;locked=0;connectable=1;" parent="bE6PycR4O1oquGe3UkHo-19" vertex="1">
          <mxGeometry width="300" height="170" as="geometry" />
        </mxCell>
        <mxCell id="bE6PycR4O1oquGe3UkHo-17" value="&lt;h1 style=&quot;font-size: 16px;&quot;&gt;&lt;font style=&quot;font-size: 16px;&quot;&gt;&amp;nbsp; &amp;nbsp; ReplicaSet A&lt;/font&gt;&lt;/h1&gt;&lt;p style=&quot;font-size: 16px;&quot;&gt;&lt;br&gt;&lt;/p&gt;" style="text;html=1;strokeColor=default;fillColor=none;spacing=5;spacingTop=-20;whiteSpace=wrap;overflow=hidden;rounded=0;movable=1;resizable=1;rotatable=1;deletable=1;editable=1;locked=0;connectable=1;" parent="bE6PycR4O1oquGe3UkHo-19" vertex="1">
          <mxGeometry x="44.11764705882353" y="46.9" width="211.76470588235293" height="105.52" as="geometry" />
        </mxCell>
        <mxCell id="8T-hJCSpSfjuMNclFOEV-6" value="" style="aspect=fixed;sketch=0;html=1;dashed=0;whitespace=wrap;fillColor=#2875E2;strokeColor=#ffffff;points=[[0.005,0.63,0],[0.1,0.2,0],[0.9,0.2,0],[0.5,0,0],[0.995,0.63,0],[0.72,0.99,0],[0.5,1,0],[0.28,0.99,0]];shape=mxgraph.kubernetes.icon2;prIcon=rs" vertex="1" parent="bE6PycR4O1oquGe3UkHo-19">
          <mxGeometry x="16.764705882352942" y="23.448275862068964" width="50" height="48" as="geometry" />
        </mxCell>
        <mxCell id="8T-hJCSpSfjuMNclFOEV-7" value="&lt;b&gt;Pod A&lt;/b&gt;" style="aspect=fixed;sketch=0;html=1;dashed=0;whitespace=wrap;fillColor=#2875E2;strokeColor=#ffffff;points=[[0.005,0.63,0],[0.1,0.2,0],[0.9,0.2,0],[0.5,0,0],[0.995,0.63,0],[0.72,0.99,0],[0.5,1,0],[0.28,0.99,0]];shape=mxgraph.kubernetes.icon2;prIcon=pod;labelPosition=center;verticalLabelPosition=bottom;align=center;verticalAlign=top;" vertex="1" parent="bE6PycR4O1oquGe3UkHo-19">
          <mxGeometry x="60.00352941176471" y="75.66413793103449" width="50" height="48" as="geometry" />
        </mxCell>
        <mxCell id="8T-hJCSpSfjuMNclFOEV-8" value="&lt;b&gt;Pod A&lt;/b&gt;" style="aspect=fixed;sketch=0;html=1;dashed=0;whitespace=wrap;fillColor=#2875E2;strokeColor=#ffffff;points=[[0.005,0.63,0],[0.1,0.2,0],[0.9,0.2,0],[0.5,0,0],[0.995,0.63,0],[0.72,0.99,0],[0.5,1,0],[0.28,0.99,0]];shape=mxgraph.kubernetes.icon2;prIcon=pod;labelPosition=center;verticalLabelPosition=bottom;align=center;verticalAlign=top;" vertex="1" parent="bE6PycR4O1oquGe3UkHo-19">
          <mxGeometry x="125" y="75.66413793103449" width="50" height="48" as="geometry" />
        </mxCell>
        <mxCell id="8T-hJCSpSfjuMNclFOEV-9" value="&lt;b&gt;Pod A&lt;/b&gt;" style="aspect=fixed;sketch=0;html=1;dashed=0;whitespace=wrap;fillColor=#2875E2;strokeColor=#ffffff;points=[[0.005,0.63,0],[0.1,0.2,0],[0.9,0.2,0],[0.5,0,0],[0.995,0.63,0],[0.72,0.99,0],[0.5,1,0],[0.28,0.99,0]];shape=mxgraph.kubernetes.icon2;prIcon=pod;labelPosition=center;verticalLabelPosition=bottom;align=center;verticalAlign=top;" vertex="1" parent="bE6PycR4O1oquGe3UkHo-19">
          <mxGeometry x="189.99529411764706" y="75.66413793103449" width="50" height="48" as="geometry" />
        </mxCell>
        <mxCell id="bE6PycR4O1oquGe3UkHo-52" value="" style="group" parent="1" vertex="1" connectable="0">
          <mxGeometry x="140" y="361" width="180" height="105" as="geometry" />
        </mxCell>
        <mxCell id="bE6PycR4O1oquGe3UkHo-47" value="&lt;h1 style=&quot;font-size: 16px;&quot;&gt;&lt;font style=&quot;font-size: 16px;&quot;&gt;&amp;nbsp; &amp;nbsp; Service A&lt;/font&gt;&lt;/h1&gt;&lt;p style=&quot;font-size: 16px;&quot;&gt;&lt;br&gt;&lt;/p&gt;" style="text;html=1;strokeColor=default;fillColor=none;spacing=5;spacingTop=-20;whiteSpace=wrap;overflow=hidden;rounded=0;movable=1;resizable=1;rotatable=1;deletable=1;editable=1;locked=0;connectable=1;container=0;" parent="bE6PycR4O1oquGe3UkHo-52" vertex="1">
          <mxGeometry width="180" height="105" as="geometry" />
        </mxCell>
        <mxCell id="bE6PycR4O1oquGe3UkHo-4" value="&lt;font style=&quot;font-size: 14px;&quot;&gt;Ticket&lt;/font&gt;" style="rounded=0;whiteSpace=wrap;html=1;container=0;" parent="bE6PycR4O1oquGe3UkHo-52" vertex="1">
          <mxGeometry x="30" y="30" width="120" height="60" as="geometry" />
        </mxCell>
        <mxCell id="8T-hJCSpSfjuMNclFOEV-73" value="" style="aspect=fixed;sketch=0;html=1;dashed=0;whitespace=wrap;fillColor=#2875E2;strokeColor=#ffffff;points=[[0.005,0.63,0],[0.1,0.2,0],[0.9,0.2,0],[0.5,0,0],[0.995,0.63,0],[0.72,0.99,0],[0.5,1,0],[0.28,0.99,0]];shape=mxgraph.kubernetes.icon2;prIcon=svc" vertex="1" parent="bE6PycR4O1oquGe3UkHo-52">
          <mxGeometry x="-30" y="-21" width="50" height="48" as="geometry" />
        </mxCell>
        <mxCell id="bE6PycR4O1oquGe3UkHo-53" value="" style="group" parent="1" vertex="1" connectable="0">
          <mxGeometry x="501" y="361" width="180" height="105" as="geometry" />
        </mxCell>
        <mxCell id="bE6PycR4O1oquGe3UkHo-55" value="" style="group" parent="bE6PycR4O1oquGe3UkHo-53" vertex="1" connectable="0">
          <mxGeometry width="180" height="105" as="geometry" />
        </mxCell>
        <mxCell id="bE6PycR4O1oquGe3UkHo-48" value="&lt;h1 style=&quot;font-size: 16px;&quot;&gt;&lt;font style=&quot;font-size: 16px;&quot;&gt;&amp;nbsp; &amp;nbsp; Service B&lt;/font&gt;&lt;/h1&gt;&lt;p style=&quot;font-size: 16px;&quot;&gt;&lt;br&gt;&lt;/p&gt;" style="text;html=1;strokeColor=default;fillColor=none;spacing=5;spacingTop=-20;whiteSpace=wrap;overflow=hidden;rounded=0;movable=1;resizable=1;rotatable=1;deletable=1;editable=1;locked=0;connectable=1;" parent="bE6PycR4O1oquGe3UkHo-55" vertex="1">
          <mxGeometry width="180" height="105" as="geometry" />
        </mxCell>
        <mxCell id="bE6PycR4O1oquGe3UkHo-3" value="&lt;font style=&quot;font-size: 14px;&quot;&gt;Payment&lt;/font&gt;" style="rounded=0;whiteSpace=wrap;html=1;" parent="bE6PycR4O1oquGe3UkHo-55" vertex="1">
          <mxGeometry x="30" y="30" width="120" height="60" as="geometry" />
        </mxCell>
        <mxCell id="bE6PycR4O1oquGe3UkHo-57" value="" style="group" parent="1" vertex="1" connectable="0">
          <mxGeometry x="862" y="361" width="180" height="105" as="geometry" />
        </mxCell>
        <mxCell id="bE6PycR4O1oquGe3UkHo-49" value="&lt;h1 style=&quot;font-size: 16px;&quot;&gt;&lt;font style=&quot;font-size: 16px;&quot;&gt;&amp;nbsp; &amp;nbsp; Service C&lt;/font&gt;&lt;/h1&gt;&lt;p style=&quot;font-size: 16px;&quot;&gt;&lt;br&gt;&lt;/p&gt;" style="text;html=1;strokeColor=default;fillColor=none;spacing=5;spacingTop=-20;whiteSpace=wrap;overflow=hidden;rounded=0;movable=1;resizable=1;rotatable=1;deletable=1;editable=1;locked=0;connectable=1;" parent="bE6PycR4O1oquGe3UkHo-57" vertex="1">
          <mxGeometry width="180" height="105" as="geometry" />
        </mxCell>
        <mxCell id="bE6PycR4O1oquGe3UkHo-7" value="&lt;font style=&quot;font-size: 14px;&quot;&gt;Merchandise&lt;/font&gt;" style="rounded=0;whiteSpace=wrap;html=1;" parent="bE6PycR4O1oquGe3UkHo-57" vertex="1">
          <mxGeometry x="30" y="30" width="120" height="60" as="geometry" />
        </mxCell>
        <mxCell id="8T-hJCSpSfjuMNclFOEV-77" value="" style="aspect=fixed;sketch=0;html=1;dashed=0;whitespace=wrap;fillColor=#2875E2;strokeColor=#ffffff;points=[[0.005,0.63,0],[0.1,0.2,0],[0.9,0.2,0],[0.5,0,0],[0.995,0.63,0],[0.72,0.99,0],[0.5,1,0],[0.28,0.99,0]];shape=mxgraph.kubernetes.icon2;prIcon=svc" vertex="1" parent="bE6PycR4O1oquGe3UkHo-57">
          <mxGeometry x="-32" y="-21" width="50" height="48" as="geometry" />
        </mxCell>
        <mxCell id="bE6PycR4O1oquGe3UkHo-70" style="edgeStyle=orthogonalEdgeStyle;rounded=0;orthogonalLoop=1;jettySize=auto;html=1;exitX=0.5;exitY=1;exitDx=0;exitDy=0;entryX=0.5;entryY=0;entryDx=0;entryDy=0;" parent="1" source="bE6PycR4O1oquGe3UkHo-48" target="8T-hJCSpSfjuMNclFOEV-58" edge="1">
          <mxGeometry relative="1" as="geometry">
            <mxPoint x="585" y="510" as="targetPoint" />
          </mxGeometry>
        </mxCell>
        <mxCell id="bE6PycR4O1oquGe3UkHo-71" style="edgeStyle=orthogonalEdgeStyle;rounded=0;orthogonalLoop=1;jettySize=auto;html=1;exitX=0.5;exitY=1;exitDx=0;exitDy=0;entryX=0.497;entryY=0;entryDx=0;entryDy=0;entryPerimeter=0;" parent="1" source="bE6PycR4O1oquGe3UkHo-47" target="bE6PycR4O1oquGe3UkHo-18" edge="1">
          <mxGeometry relative="1" as="geometry" />
        </mxCell>
        <mxCell id="bE6PycR4O1oquGe3UkHo-72" style="edgeStyle=orthogonalEdgeStyle;rounded=0;orthogonalLoop=1;jettySize=auto;html=1;entryX=0.535;entryY=0;entryDx=0;entryDy=0;entryPerimeter=0;" parent="1" source="bE6PycR4O1oquGe3UkHo-49" edge="1">
          <mxGeometry relative="1" as="geometry">
            <mxPoint x="951.9000000000001" y="510" as="targetPoint" />
          </mxGeometry>
        </mxCell>
        <mxCell id="bE6PycR4O1oquGe3UkHo-73" value="&amp;lt;https://bodyslam053.com&amp;gt;" style="text;html=1;strokeColor=none;fillColor=#000000;align=center;verticalAlign=middle;whiteSpace=wrap;rounded=0;fontColor=#FFFFFF;" parent="1" vertex="1">
          <mxGeometry x="506" y="160" width="170" height="20" as="geometry" />
        </mxCell>
        <mxCell id="bE6PycR4O1oquGe3UkHo-74" value="&amp;lt;https://bodyslam053.com/ticket&amp;gt;" style="text;html=1;strokeColor=none;fillColor=#000000;align=center;verticalAlign=middle;whiteSpace=wrap;rounded=0;fontColor=#FFFFFF;" parent="1" vertex="1">
          <mxGeometry x="140" y="280" width="200" height="20" as="geometry" />
        </mxCell>
        <mxCell id="bE6PycR4O1oquGe3UkHo-75" value="&amp;lt;https://bodyslam053.com/payment&amp;gt;" style="text;html=1;strokeColor=none;fillColor=#000000;align=center;verticalAlign=middle;whiteSpace=wrap;rounded=0;fontColor=#FFFFFF;" parent="1" vertex="1">
          <mxGeometry x="483.5" y="280" width="215" height="20" as="geometry" />
        </mxCell>
        <mxCell id="bE6PycR4O1oquGe3UkHo-76" value="&amp;lt;https://bodyslam053.com/merchandise&amp;gt;" style="text;html=1;strokeColor=none;fillColor=#000000;align=center;verticalAlign=middle;whiteSpace=wrap;rounded=0;fontColor=#FFFFFF;" parent="1" vertex="1">
          <mxGeometry x="820" y="280" width="242" height="20" as="geometry" />
        </mxCell>
        <mxCell id="8T-hJCSpSfjuMNclFOEV-1" value="" style="aspect=fixed;sketch=0;html=1;dashed=0;whitespace=wrap;fillColor=#2875E2;strokeColor=#ffffff;points=[[0.005,0.63,0],[0.1,0.2,0],[0.9,0.2,0],[0.5,0,0],[0.995,0.63,0],[0.72,0.99,0],[0.5,1,0],[0.28,0.99,0]];shape=mxgraph.kubernetes.icon2;prIcon=user" vertex="1" parent="1">
          <mxGeometry x="506" y="70" width="50" height="48" as="geometry" />
        </mxCell>
        <mxCell id="8T-hJCSpSfjuMNclFOEV-2" value="" style="aspect=fixed;sketch=0;html=1;dashed=0;whitespace=wrap;fillColor=#2875E2;strokeColor=#ffffff;points=[[0.005,0.63,0],[0.1,0.2,0],[0.9,0.2,0],[0.5,0,0],[0.995,0.63,0],[0.72,0.99,0],[0.5,1,0],[0.28,0.99,0]];shape=mxgraph.kubernetes.icon2;prIcon=ing" vertex="1" parent="1">
          <mxGeometry x="506" y="190" width="50" height="48" as="geometry" />
        </mxCell>
        <mxCell id="8T-hJCSpSfjuMNclFOEV-5" value="" style="aspect=fixed;sketch=0;html=1;dashed=0;whitespace=wrap;fillColor=#2875E2;strokeColor=#ffffff;points=[[0.005,0.63,0],[0.1,0.2,0],[0.9,0.2,0],[0.5,0,0],[0.995,0.63,0],[0.72,0.99,0],[0.5,1,0],[0.28,0.99,0]];shape=mxgraph.kubernetes.icon2;prIcon=deploy" vertex="1" parent="1">
          <mxGeometry x="50" y="485.451724137931" width="50" height="48" as="geometry" />
        </mxCell>
        <mxCell id="8T-hJCSpSfjuMNclFOEV-57" value="" style="group;movable=1;resizable=1;rotatable=1;deletable=1;editable=1;locked=0;connectable=1;" vertex="1" connectable="0" parent="1">
          <mxGeometry x="441" y="510" width="300" height="170" as="geometry" />
        </mxCell>
        <mxCell id="8T-hJCSpSfjuMNclFOEV-58" value="&lt;h1 style=&quot;font-size: 16px;&quot;&gt;&lt;font style=&quot;font-size: 16px;&quot;&gt;&amp;nbsp; &amp;nbsp; Deployment B&lt;/font&gt;&lt;/h1&gt;&lt;p style=&quot;font-size: 16px;&quot;&gt;&lt;br&gt;&lt;/p&gt;" style="text;html=1;strokeColor=default;fillColor=none;spacing=5;spacingTop=-20;whiteSpace=wrap;overflow=hidden;rounded=0;movable=1;resizable=1;rotatable=1;deletable=1;editable=1;locked=0;connectable=1;" vertex="1" parent="8T-hJCSpSfjuMNclFOEV-57">
          <mxGeometry width="300" height="170" as="geometry" />
        </mxCell>
        <mxCell id="8T-hJCSpSfjuMNclFOEV-59" value="&lt;h1 style=&quot;font-size: 16px;&quot;&gt;&lt;font style=&quot;font-size: 16px;&quot;&gt;&amp;nbsp; &amp;nbsp; ReplicaSet B&lt;/font&gt;&lt;/h1&gt;&lt;p style=&quot;font-size: 16px;&quot;&gt;&lt;br&gt;&lt;/p&gt;" style="text;html=1;strokeColor=default;fillColor=none;spacing=5;spacingTop=-20;whiteSpace=wrap;overflow=hidden;rounded=0;movable=1;resizable=1;rotatable=1;deletable=1;editable=1;locked=0;connectable=1;" vertex="1" parent="8T-hJCSpSfjuMNclFOEV-57">
          <mxGeometry x="44.11764705882353" y="46.9" width="211.76470588235293" height="105.52" as="geometry" />
        </mxCell>
        <mxCell id="8T-hJCSpSfjuMNclFOEV-60" value="" style="aspect=fixed;sketch=0;html=1;dashed=0;whitespace=wrap;fillColor=#2875E2;strokeColor=#ffffff;points=[[0.005,0.63,0],[0.1,0.2,0],[0.9,0.2,0],[0.5,0,0],[0.995,0.63,0],[0.72,0.99,0],[0.5,1,0],[0.28,0.99,0]];shape=mxgraph.kubernetes.icon2;prIcon=rs" vertex="1" parent="8T-hJCSpSfjuMNclFOEV-57">
          <mxGeometry x="16.764705882352942" y="23.448275862068964" width="50" height="48" as="geometry" />
        </mxCell>
        <mxCell id="8T-hJCSpSfjuMNclFOEV-61" value="&lt;b&gt;Pod B&lt;/b&gt;" style="aspect=fixed;sketch=0;html=1;dashed=0;whitespace=wrap;fillColor=#2875E2;strokeColor=#ffffff;points=[[0.005,0.63,0],[0.1,0.2,0],[0.9,0.2,0],[0.5,0,0],[0.995,0.63,0],[0.72,0.99,0],[0.5,1,0],[0.28,0.99,0]];shape=mxgraph.kubernetes.icon2;prIcon=pod;labelPosition=center;verticalLabelPosition=bottom;align=center;verticalAlign=top;" vertex="1" parent="8T-hJCSpSfjuMNclFOEV-57">
          <mxGeometry x="60.00352941176471" y="75.66413793103449" width="50" height="48" as="geometry" />
        </mxCell>
        <mxCell id="8T-hJCSpSfjuMNclFOEV-62" value="&lt;b&gt;Pod B&lt;/b&gt;" style="aspect=fixed;sketch=0;html=1;dashed=0;whitespace=wrap;fillColor=#2875E2;strokeColor=#ffffff;points=[[0.005,0.63,0],[0.1,0.2,0],[0.9,0.2,0],[0.5,0,0],[0.995,0.63,0],[0.72,0.99,0],[0.5,1,0],[0.28,0.99,0]];shape=mxgraph.kubernetes.icon2;prIcon=pod;labelPosition=center;verticalLabelPosition=bottom;align=center;verticalAlign=top;" vertex="1" parent="8T-hJCSpSfjuMNclFOEV-57">
          <mxGeometry x="125" y="75.66413793103449" width="50" height="48" as="geometry" />
        </mxCell>
        <mxCell id="8T-hJCSpSfjuMNclFOEV-63" value="&lt;b&gt;Pod B&lt;/b&gt;" style="aspect=fixed;sketch=0;html=1;dashed=0;whitespace=wrap;fillColor=#2875E2;strokeColor=#ffffff;points=[[0.005,0.63,0],[0.1,0.2,0],[0.9,0.2,0],[0.5,0,0],[0.995,0.63,0],[0.72,0.99,0],[0.5,1,0],[0.28,0.99,0]];shape=mxgraph.kubernetes.icon2;prIcon=pod;labelPosition=center;verticalLabelPosition=bottom;align=center;verticalAlign=top;" vertex="1" parent="8T-hJCSpSfjuMNclFOEV-57">
          <mxGeometry x="189.99529411764706" y="75.66413793103449" width="50" height="48" as="geometry" />
        </mxCell>
        <mxCell id="8T-hJCSpSfjuMNclFOEV-64" value="" style="aspect=fixed;sketch=0;html=1;dashed=0;whitespace=wrap;fillColor=#2875E2;strokeColor=#ffffff;points=[[0.005,0.63,0],[0.1,0.2,0],[0.9,0.2,0],[0.5,0,0],[0.995,0.63,0],[0.72,0.99,0],[0.5,1,0],[0.28,0.99,0]];shape=mxgraph.kubernetes.icon2;prIcon=deploy" vertex="1" parent="1">
          <mxGeometry x="410" y="485.451724137931" width="50" height="48" as="geometry" />
        </mxCell>
        <mxCell id="8T-hJCSpSfjuMNclFOEV-65" value="" style="group;movable=1;resizable=1;rotatable=1;deletable=1;editable=1;locked=0;connectable=1;" vertex="1" connectable="0" parent="1">
          <mxGeometry x="801" y="510" width="300" height="170" as="geometry" />
        </mxCell>
        <mxCell id="8T-hJCSpSfjuMNclFOEV-66" value="&lt;h1 style=&quot;font-size: 16px;&quot;&gt;&lt;font style=&quot;font-size: 16px;&quot;&gt;&amp;nbsp; &amp;nbsp; Deployment C&lt;/font&gt;&lt;/h1&gt;&lt;p style=&quot;font-size: 16px;&quot;&gt;&lt;br&gt;&lt;/p&gt;" style="text;html=1;strokeColor=default;fillColor=none;spacing=5;spacingTop=-20;whiteSpace=wrap;overflow=hidden;rounded=0;movable=1;resizable=1;rotatable=1;deletable=1;editable=1;locked=0;connectable=1;" vertex="1" parent="8T-hJCSpSfjuMNclFOEV-65">
          <mxGeometry width="300" height="170" as="geometry" />
        </mxCell>
        <mxCell id="8T-hJCSpSfjuMNclFOEV-67" value="&lt;h1 style=&quot;font-size: 16px;&quot;&gt;&lt;font style=&quot;font-size: 16px;&quot;&gt;&amp;nbsp; &amp;nbsp; ReplicaSet C&lt;/font&gt;&lt;/h1&gt;&lt;p style=&quot;font-size: 16px;&quot;&gt;&lt;br&gt;&lt;/p&gt;" style="text;html=1;strokeColor=default;fillColor=none;spacing=5;spacingTop=-20;whiteSpace=wrap;overflow=hidden;rounded=0;movable=1;resizable=1;rotatable=1;deletable=1;editable=1;locked=0;connectable=1;" vertex="1" parent="8T-hJCSpSfjuMNclFOEV-65">
          <mxGeometry x="44.11764705882353" y="46.9" width="211.76470588235293" height="105.52" as="geometry" />
        </mxCell>
        <mxCell id="8T-hJCSpSfjuMNclFOEV-68" value="" style="aspect=fixed;sketch=0;html=1;dashed=0;whitespace=wrap;fillColor=#2875E2;strokeColor=#ffffff;points=[[0.005,0.63,0],[0.1,0.2,0],[0.9,0.2,0],[0.5,0,0],[0.995,0.63,0],[0.72,0.99,0],[0.5,1,0],[0.28,0.99,0]];shape=mxgraph.kubernetes.icon2;prIcon=rs" vertex="1" parent="8T-hJCSpSfjuMNclFOEV-65">
          <mxGeometry x="16.764705882352942" y="23.448275862068964" width="50" height="48" as="geometry" />
        </mxCell>
        <mxCell id="8T-hJCSpSfjuMNclFOEV-69" value="&lt;b&gt;Pod C&lt;/b&gt;" style="aspect=fixed;sketch=0;html=1;dashed=0;whitespace=wrap;fillColor=#2875E2;strokeColor=#ffffff;points=[[0.005,0.63,0],[0.1,0.2,0],[0.9,0.2,0],[0.5,0,0],[0.995,0.63,0],[0.72,0.99,0],[0.5,1,0],[0.28,0.99,0]];shape=mxgraph.kubernetes.icon2;prIcon=pod;labelPosition=center;verticalLabelPosition=bottom;align=center;verticalAlign=top;" vertex="1" parent="8T-hJCSpSfjuMNclFOEV-65">
          <mxGeometry x="60.00352941176471" y="75.66413793103449" width="50" height="48" as="geometry" />
        </mxCell>
        <mxCell id="8T-hJCSpSfjuMNclFOEV-70" value="&lt;b&gt;Pod C&lt;/b&gt;" style="aspect=fixed;sketch=0;html=1;dashed=0;whitespace=wrap;fillColor=#2875E2;strokeColor=#ffffff;points=[[0.005,0.63,0],[0.1,0.2,0],[0.9,0.2,0],[0.5,0,0],[0.995,0.63,0],[0.72,0.99,0],[0.5,1,0],[0.28,0.99,0]];shape=mxgraph.kubernetes.icon2;prIcon=pod;labelPosition=center;verticalLabelPosition=bottom;align=center;verticalAlign=top;" vertex="1" parent="8T-hJCSpSfjuMNclFOEV-65">
          <mxGeometry x="125" y="75.66413793103449" width="50" height="48" as="geometry" />
        </mxCell>
        <mxCell id="8T-hJCSpSfjuMNclFOEV-71" value="&lt;b&gt;Pod C&lt;/b&gt;" style="aspect=fixed;sketch=0;html=1;dashed=0;whitespace=wrap;fillColor=#2875E2;strokeColor=#ffffff;points=[[0.005,0.63,0],[0.1,0.2,0],[0.9,0.2,0],[0.5,0,0],[0.995,0.63,0],[0.72,0.99,0],[0.5,1,0],[0.28,0.99,0]];shape=mxgraph.kubernetes.icon2;prIcon=pod;labelPosition=center;verticalLabelPosition=bottom;align=center;verticalAlign=top;" vertex="1" parent="8T-hJCSpSfjuMNclFOEV-65">
          <mxGeometry x="189.99529411764706" y="75.66413793103449" width="50" height="48" as="geometry" />
        </mxCell>
        <mxCell id="8T-hJCSpSfjuMNclFOEV-72" value="" style="aspect=fixed;sketch=0;html=1;dashed=0;whitespace=wrap;fillColor=#2875E2;strokeColor=#ffffff;points=[[0.005,0.63,0],[0.1,0.2,0],[0.9,0.2,0],[0.5,0,0],[0.995,0.63,0],[0.72,0.99,0],[0.5,1,0],[0.28,0.99,0]];shape=mxgraph.kubernetes.icon2;prIcon=deploy" vertex="1" parent="1">
          <mxGeometry x="770" y="485.451724137931" width="50" height="48" as="geometry" />
        </mxCell>
        <mxCell id="8T-hJCSpSfjuMNclFOEV-76" value="" style="aspect=fixed;sketch=0;html=1;dashed=0;whitespace=wrap;fillColor=#2875E2;strokeColor=#ffffff;points=[[0.005,0.63,0],[0.1,0.2,0],[0.9,0.2,0],[0.5,0,0],[0.995,0.63,0],[0.72,0.99,0],[0.5,1,0],[0.28,0.99,0]];shape=mxgraph.kubernetes.icon2;prIcon=svc" vertex="1" parent="1">
          <mxGeometry x="470" y="340" width="50" height="48" as="geometry" />
        </mxCell>
      </root>
    </mxGraphModel>
  </diagram>
</mxfile>
